<svg id="Слой_1" data-name="Слой 1" xmlns="http://www.w3.org/2000/svg" viewBox="0 0 1921 489.12"><defs><style>.cls-1{fill:none;stroke:#e7e7e7;stroke-miterlimit:10;}</style></defs><title>lines2</title><polygon class="cls-1" points="853.06 126.57 1425.52 328.97 1920.5 157.13 1920.5 131.5 1421.5 315.66 847.3 114.54 411.56 338.03 0.5 146.84 0.5 163.46 416.75 344.76 853.06 126.57"/><polygon class="cls-1" points="858.82 138.59 1429.54 342.27 1920.5 182.6 1920.5 157.13 1425.52 328.97 853.06 126.57 416.75 344.76 0.5 163.46 0.5 179.9 421.94 351.48 858.82 138.59"/><polygon class="cls-1" points="864.58 150.62 1433.56 355.57 1920.5 207.89 1920.5 182.6 1429.54 342.27 858.82 138.59 421.94 351.48 0.5 179.9 0.5 196.15 427.13 358.21 864.58 150.62"/><polygon class="cls-1" points="841.54 102.51 1417.48 302.36 1920.5 105.7 1920.5 79.73 1413.46 289.06 835.78 90.49 401.18 324.58 0.5 113 0.5 130.03 406.37 331.31 841.54 102.51"/><polygon class="cls-1" points="830.02 78.46 1409.44 275.75 1920.5 53.58 1920.5 27.27 1405.41 262.45 824.26 66.43 390.8 311.13 0.5 78.25 0.5 95.75 395.99 317.86 830.02 78.46"/><polygon class="cls-1" points="824.26 66.43 1405.41 262.45 1920.5 27.27 1920.5 0.79 1401.39 249.14 818.5 54.41 385.61 304.41 0.5 60.51 0.5 78.25 390.8 311.13 824.26 66.43"/><polygon class="cls-1" points="835.78 90.49 1413.46 289.06 1920.5 79.73 1920.5 53.58 1409.44 275.75 830.02 78.46 395.99 317.86 0.5 95.75 0.5 113 401.18 324.58 835.78 90.49"/><polygon class="cls-1" points="870.34 162.65 1437.58 368.88 1920.5 233.02 1920.5 207.89 1433.56 355.57 864.58 150.62 427.13 358.21 0.5 196.15 0.5 212.25 432.32 364.93 870.34 162.65"/><polygon class="cls-1" points="847.3 114.54 1421.5 315.66 1920.5 131.5 1920.5 105.7 1417.48 302.36 841.54 102.51 406.37 331.31 0.5 130.03 0.5 146.84 411.56 338.03 847.3 114.54"/><polygon class="cls-1" points="916.42 258.86 1469.74 475.31 1920.5 427.87 1920.5 404.11 1465.72 462.01 910.66 246.84 468.65 412.01 0.5 320.96 0.5 336.02 473.84 418.73 916.42 258.86"/><polygon class="cls-1" points="904.9 234.81 1461.7 448.7 1920.5 380.18 1920.5 356.08 1457.68 435.4 899.14 222.78 458.27 398.56 0.5 290.53 0.5 305.81 463.46 405.28 904.9 234.81"/><polygon class="cls-1" points="910.66 246.84 1465.72 462.01 1920.5 404.11 1920.5 380.18 1461.7 448.7 904.9 234.81 463.46 405.28 0.5 305.81 0.5 320.96 468.65 412.01 910.66 246.84"/><polygon class="cls-1" points="922.18 270.89 1473.76 488.62 1920.5 451.45 1920.5 427.87 1469.74 475.31 916.42 258.86 473.84 418.73 0.5 336.02 0.5 350.97 479.03 425.46 922.18 270.89"/><polygon class="cls-1" points="881.86 186.7 1445.62 395.49 1920.5 282.75 1920.5 257.97 1441.6 382.18 876.1 174.68 437.51 371.66 0.5 228.18 0.5 243.97 442.7 378.38 881.86 186.7"/><polygon class="cls-1" points="899.14 222.78 1457.68 435.4 1920.5 356.08 1920.5 331.81 1453.66 422.1 893.38 210.76 453.08 391.83 0.5 275.14 0.5 290.53 458.27 398.56 899.14 222.78"/><polygon class="cls-1" points="887.62 198.73 1449.64 408.79 1920.5 307.37 1920.5 282.75 1445.62 395.49 881.86 186.7 442.7 378.38 0.5 243.97 0.5 259.62 447.89 385.11 887.62 198.73"/><polygon class="cls-1" points="876.1 174.68 1441.6 382.18 1920.5 257.97 1920.5 233.02 1437.58 368.88 870.34 162.65 432.32 364.93 0.5 212.25 0.5 228.18 437.51 371.66 876.1 174.68"/><polygon class="cls-1" points="893.38 210.76 1453.66 422.1 1920.5 331.81 1920.5 307.37 1449.64 408.79 887.62 198.73 447.89 385.11 0.5 259.62 0.5 275.14 453.08 391.83 893.38 210.76"/></svg>
