<svg id="Layer_2" data-name="Layer 2" xmlns="http://www.w3.org/2000/svg" xmlns:xlink="http://www.w3.org/1999/xlink" viewBox="0 0 432.4 405.82"><defs><style>.cls-1{fill:#2b2a29;}.cls-2{fill:url(#Безымянный_градиент);}.cls-3{fill:url(#Безымянный_градиент_2);}</style><linearGradient id="Безымянный_градиент" x1="549.47" y1="365.95" x2="551.43" y2="165.07" gradientTransform="matrix(0.99, 0.56, 0.62, -1.08, -143.34, 302.82)" gradientUnits="userSpaceOnUse"><stop offset="0" stop-color="#428ecc"/><stop offset="0.01" stop-color="#428ecc"/><stop offset="0.25" stop-color="#408bc9"/><stop offset="0.45" stop-color="#3b82be"/><stop offset="0.64" stop-color="#3373ad"/><stop offset="0.82" stop-color="#275e95"/><stop offset="0.99" stop-color="#174376"/><stop offset="1" stop-color="#164173"/></linearGradient><linearGradient id="Безымянный_градиент_2" x1="367.63" y1="130.3" x2="368.85" y2="362.06" gradientTransform="matrix(0.99, -0.56, -0.62, -1.08, 199.24, 820.8)" gradientUnits="userSpaceOnUse"><stop offset="0" stop-color="#338ccb"/><stop offset="0.13" stop-color="#2e7eba"/><stop offset="0.49" stop-color="#215d94"/><stop offset="0.78" stop-color="#19487c"/><stop offset="0.95" stop-color="#164173"/></linearGradient></defs><title>logo</title><path class="cls-1" d="M280.7,588.7l-25.6-44.4h11.8l18,32.1L302,544.3h10.3l-24.4,44.4Zm54.8,0V544.3h45.4v7.6H345.8v9.9h20.5v7.6H345.8v11h35.5v8.3H335.5Zm107.3-36.5H414.9v28.1h27.9v-9.6l10.3,2.1v5.3c0,4-.8,6.8-2.3,8.3s-4.5,2.2-8.7,2.2H415.6c-4.3,0-7.2-.8-8.8-2.2s-2.2-4.3-2.2-8.3V554.7c0-4,.8-6.7,2.2-8.2,1.6-1.5,4.5-2.3,8.8-2.3h26.5c4.3,0,7.2.8,8.7,2.3s2.3,4.2,2.3,8.2v4.2l-10.3,1.7Zm64.2,0v36.5H496.7V552.2H476.3v-7.9h51.1v7.9Zm43.6,2.6c0-4,.8-6.7,2.2-8.2,1.6-1.5,4.5-2.3,8.8-2.3h32.7c4.3,0,7.2.8,8.6,2.3,1.6,1.4,2.3,4.2,2.3,8.2v23.4c0,4-.8,6.8-2.3,8.3s-4.4,2.2-8.6,2.2H561.6c-4.3,0-7.2-.8-8.8-2.2s-2.2-4.3-2.2-8.3ZM561,580.4h34V552.3H561ZM661.9,552H638.7v12.4h23.2c1.8,0,3.1-.2,3.7-.8a3.77,3.77,0,0,0,.9-2.8v-5.3a3.77,3.77,0,0,0-.9-2.8C665,552.2,663.7,552,661.9,552Zm-33.4,36.7V544.3h37.9c3.5,0,6.1.7,7.7,2s2.3,3.6,2.3,6.6v10.4c0,3-.8,5.1-2.3,6.5s-4.2,2.1-7.7,2.1h-5.8l20.5,16.8H666.3l-17.9-16.8h-9.8v16.8H628.5Z" transform="translate(-255.1 -182.88)"/><path class="cls-2" d="M532.2,455.6l-10.3,2.9a32.12,32.12,0,0,1-16,.5c-.1,0-.3-.1-.4-.1A44.27,44.27,0,0,1,476.2,435l-6.9-14.2L572.1,240.6A114.17,114.17,0,0,1,673.4,183l14.1.3Z" transform="translate(-255.1 -182.88)"/><path class="cls-3" d="M535,450.7l-7.8,13.7c-24.6,43.4-87.2,43.5-111.9.1L255.1,183.2l14.2-.3a114.15,114.15,0,0,1,101.3,57.7L471.2,417.4l6.5,11.3a48.42,48.42,0,0,0,57.3,22Z" transform="translate(-255.1 -182.88)"/></svg>
