<svg id="Layer_1" data-name="Layer 1" xmlns="http://www.w3.org/2000/svg" viewBox="0 0 109.26 156.76"><defs><style>.cls-1{fill:#1987d1;}</style></defs><title>reason3</title><path class="cls-1" d="M122.11,771.38a41.6,41.6,0,1,1,41.6-41.6A41.65,41.65,0,0,1,122.11,771.38Zm0-72.93a31.33,31.33,0,1,0,31.33,31.33A31.36,31.36,0,0,0,122.11,698.45Z" transform="translate(-68.76 -614.62)"/><path d="M175.5,617c-2.5-1.35-4.4,2.26-5.75,4.75l-30.43,55.94L130,677l29.47-55.57a3.42,3.42,0,0,0-6-3.33L122.16,677h-9.55l13.13-26.84h0l15.15-27.95c1.35-2.49,2.59-5.61.1-7a5.14,5.14,0,0,0-7,2.07L123.36,637l-10.67-19.69a5.14,5.14,0,0,0-4.52-2.69H73.89a5.14,5.14,0,0,0-4.52,7.58l31.54,58.2a4.84,4.84,0,0,0,5.34,2.59,5,5,0,0,0,.76.1h34.28a5.14,5.14,0,0,0,4.52-2.69l31.54-58.2C178.69,619.71,178,618.35,175.5,617Zm-98.75,4.25,30.89-1.2,14.47,26.7-16,30.08Z" transform="translate(-68.76 -614.62)"/><path d="M125.11,711.26h-3.38a.85.85,0,0,0-.78.52,5.6,5.6,0,0,1-2,2.35,6.33,6.33,0,0,1-2.92,1.17.86.86,0,0,0-.76.85v3.38a.86.86,0,0,0,.86.86h3.27v23.88a.86.86,0,0,0,.86.86h4.85a.86.86,0,0,0,.86-.86V712.11A.86.86,0,0,0,125.11,711.26Z" transform="translate(-68.76 -614.62)"/></svg>
