<svg id="Layer_1" data-name="Layer 1" xmlns="http://www.w3.org/2000/svg" viewBox="0 0 264.74 237.79"><defs><style>.cls-1{fill:#1987d1;}</style></defs><title>reason2</title><path class="cls-1" d="M-149.17,864.94l8,31.22a40.22,40.22,0,0,1-29,48.88l-47.07,12A40,40,0,0,1-262.59,937a2.39,2.39,0,0,1,1.46-3.39l21-6.12a6.32,6.32,0,0,1,5.41,1,12.58,12.58,0,0,0,10.8,2.36l47.07-12a13.17,13.17,0,0,0,9.49-16l-8-31.22a13.17,13.17,0,0,0-16-9.49l-47.07,12a2.57,2.57,0,0,0-.39.12l-15.43,3.94c-10.47,2.67-18.18-9.79-11-17.91A40,40,0,0,1-245.13,848l47.08-12A40.23,40.23,0,0,1-149.17,864.94Z" transform="translate(404.68 -799.42)"/><path class="cls-1" d="M-279.16,991.84l-34.76,33.95a40.22,40.22,0,0,1-56.83-.66l-22.51-23a40.23,40.23,0,0,1,.67-56.83l34.75-34A40,40,0,0,1-339,900.93c10.74-2.51,18.11,10.56,10.4,18.44l-25,25.51-20.17,19.71a13.17,13.17,0,0,0-.22,18.6l22.51,23a13.17,13.17,0,0,0,18.6.22L-298,972.5a12.58,12.58,0,0,0,3.6-10.45,6.32,6.32,0,0,1,1.93-5.15l16.14-14.73a2.39,2.39,0,0,1,3.66.52A40,40,0,0,1-279.16,991.84Z" transform="translate(404.68 -799.42)"/><path d="M-308.87,855l-21-37.34c-1.7-3-5.28-4.24-8-2.71s-3.55,5.22-1.85,8.25l21,37.34c1.7,3,5.28,4.24,8,2.71S-307.17,858-308.87,855Z" transform="translate(404.68 -799.42)"/><path d="M-334,878.22a6.8,6.8,0,0,0-4.35-7.75l-38.56-13.07a5.25,5.25,0,0,0-7,3.91,6.8,6.8,0,0,0,4.35,7.75L-341,882.14a5.36,5.36,0,0,0,4.38-.35A5.36,5.36,0,0,0-334,878.22Z" transform="translate(404.68 -799.42)"/><path d="M-278.81,847.21l8.9-39.73a6.8,6.8,0,0,0-4.35-7.75,5.25,5.25,0,0,0-7,3.91l-8.9,39.73a6.8,6.8,0,0,0,4.35,7.75,5.36,5.36,0,0,0,4.38-.35A5.36,5.36,0,0,0-278.81,847.21Z" transform="translate(404.68 -799.42)"/></svg>
