<svg id="Режим_изоляции" data-name="Режим изоляции" xmlns="http://www.w3.org/2000/svg" viewBox="0 0 256 256"><defs><style>.cls-1{fill:#1987d1;}</style></defs><title>reason2</title><path d="M1749.14,244.12a6,6,0,0,1,11.72-2.34l.32,1.56a93.61,93.61,0,0,0,31-9.89,172,172,0,0,1-17.59-28.29,6,6,0,0,1,5.68-8.61,143.92,143.92,0,0,1,16.32.46q4.9.43,9.73,1.22c-.3-4.52-.41-9-.35-13.28a6,6,0,0,1,8.53-5.33h0a137.85,137.85,0,0,1,25.21,15.24c38.63-27.3,98-26.16,134.92,1.71a84.54,84.54,0,0,1,12.48,11.51,58.29,58.29,0,0,0,5.66-7.23c1.91-2.93,3.15-5.55,3.15-7.23,0-4.28-1.27-7.11-3.13-8.72a7.58,7.58,0,0,0-3.81-1.73,9.63,9.63,0,0,0-4.48.39,8.78,8.78,0,0,0-5.61,5.16,4,4,0,0,1-7.47-2.78,16.74,16.74,0,0,1,10.61-10,17.6,17.6,0,0,1,8.2-.67,15.53,15.53,0,0,1,7.77,3.57c3.51,3,5.91,7.89,5.91,14.75,0,3.3-1.76,7.42-4.46,11.57a68,68,0,0,1-7.34,9.22,62.76,62.76,0,0,1,11.64,31.32,76.53,76.53,0,0,1,.07,9.2c-1.27,31.9-15.47,63-18.69,94h-12c3-32,17.62-64.55,18.78-94.71.07-1.85.08-3.63,0-5.46-.61-16.52-9.86-31.53-24.51-42.6-31.91-24.1-83.81-25.71-118.23-3.24q2.34,2.19,4.58,4.52a6,6,0,0,1-8.62,8.29,116.75,116.75,0,0,0-27-20.75c.64,12.41,2.85,26.59,7,37.77a6,6,0,0,1-11.25,4.12q-.42-1.13-.81-2.3c-14.92,10.84-31.05,17.86-49.3,20.51,2.3,9.82,4.38,17.76,6.6,28.36a288.85,288.85,0,0,0,78.93,25.91c6.16,1.06,10.65,3.74,12.58,10.28,3,10.09,5.81,19.54,8.2,29.29h-12.35c-2.05-7.9-5.14-18.43-7.34-25.92-.42-1.44-.8-1.45-3.11-1.85l-3.69-.66,4.09,28.43h-12.12l-4.48-31c-25-5.79-45.23-13.6-68.56-25a6,6,0,0,1-3.29-4.22c-3.31-16.49-6.7-27.7-10.09-44.5Zm195.69,104.76c-2.08-8.53-5.5-18.25-8.15-26.75q-3.41.86-6.9,1.52l3.62,25.24h-12.12l-3.37-23.58a170.15,170.15,0,0,1-17.85.55c-2.17,7.31-4.63,15.73-6.56,23h-12.34c2.38-9.72,5.89-21,8.67-30.68h0l2.48-10a6,6,0,0,1,11.72,2.39q-.36,1.72-.73,3.31a120.38,120.38,0,0,0,30.35-3.37c-.29-1.44-.55-2.89-.77-4.36a6,6,0,0,1,11.86-1.73c2.06,14,9.26,29.7,12.4,44.42ZM1802.55,227.27q3.59-2.42,7.11-5.19l-2-11.45a123.3,123.3,0,0,0-17.62-2,154.67,154.67,0,0,0,12.54,18.68Zm87.63-17.89a6,6,0,1,1-2.34-11.71,97.08,97.08,0,0,1,38.6,0,6,6,0,1,1-2.34,11.71,87,87,0,0,0-33.91,0Zm-62.68,38.56c10.67,0,10.67,16.19,0,16.19s-10.67-16.19,0-16.19Z" transform="translate(-1748 -175)"/><path class="cls-1" d="M1998,419a6,6,0,1,1,0,12H1777.52c-14.38,0-23.49-9.63-27.39-22a47.85,47.85,0,0,1,0-28.21c3.91-12.33,13-22,27.39-22H1998a6,6,0,1,1,0,12H1889.55c-8.2,0-13.54,6-16,13.58a36,36,0,0,0,0,21c2.42,7.62,7.76,13.58,16,13.58Zm-113.53-18.43H1995v8H1886.94a25.28,25.28,0,0,1-1.46-3.63,30.69,30.69,0,0,1-1-4.37Zm2.48-19.28H1995v8H1884.45a30.57,30.57,0,0,1,1-4.38,25.17,25.17,0,0,1,1.45-3.62ZM1777.52,419h4.37a37.8,37.8,0,0,1-4.78-10,47.84,47.84,0,0,1,0-28.21,37.83,37.83,0,0,1,4.78-10h-4.37c-8.2,0-13.54,6-16,13.58a36,36,0,0,0,0,21c2.41,7.62,7.76,13.58,16,13.58Zm27,0h35.41a37.83,37.83,0,0,1-4.78-10,47.87,47.87,0,0,1,0-28.21,37.82,37.82,0,0,1,4.78-10H1804.5c-8.2,0-13.54,6-16,13.58a36,36,0,0,0,0,21c2.42,7.62,7.76,13.58,16,13.58Zm58,0h4.41a37.83,37.83,0,0,1-4.78-10,47.87,47.87,0,0,1,0-28.21,37.79,37.79,0,0,1,4.78-10h-4.41c-8.2,0-13.54,6-16,13.58a36,36,0,0,0,0,21c2.42,7.62,7.76,13.58,16,13.58Z" transform="translate(-1748 -175)"/></svg>
