<svg id="Режим_изоляции" data-name="Режим изоляции" xmlns="http://www.w3.org/2000/svg" viewBox="0 0 256 242"><defs><style>.cls-1{fill:#373737;}.cls-2{fill:#1987d1;}</style></defs><title>reason1</title><path class="cls-1" d="M226.06,793.8c3.3,5.67,6.57,8.2,11.32,13.2H238l0-45.69a7.35,7.35,0,0,1,7-7.31h61.69a59.29,59.29,0,0,0-7.26-12H245a19.31,19.31,0,0,0-19,19.19Z" transform="translate(-194 -700)"/><path class="cls-2" d="M340.67,742a77.28,77.28,0,0,1,5,22H422v16h9a28.32,28.32,0,0,1,19,7V739a19.06,19.06,0,0,0-19-19H375.94a13.89,13.89,0,0,0-13.42,10.32l-3.37,11.73Z" transform="translate(-194 -700)"/><path class="cls-1" d="M431,802a7,7,0,0,1,7,7V920.41a9.53,9.53,0,0,1-9.33,9.59H247.36a9.11,9.11,0,0,1-9.32-9.08l0-73.55a80.69,80.69,0,0,1-12-5.35l0,78.9A21.18,21.18,0,0,0,247.36,942H428.67A21.61,21.61,0,0,0,450,920.41V809a19,19,0,0,0-19-19l-87.3.06a80.72,80.72,0,0,1-3.89,12Z" transform="translate(-194 -700)"/><path class="cls-2" d="M194,771a71,71,0,0,0,113.62,56.79l7.34,7.34L329.1,821l-7.34-7.34A71,71,0,1,0,194,771Zm71-55a55,55,0,1,1-55,55A55,55,0,0,1,265,716Z" transform="translate(-194 -700)"/><path class="cls-2" d="M322.89,843l32,32a10,10,0,1,0,14.14-14.14l-32-32Z" transform="translate(-194 -700)"/><path class="cls-1" d="M248,802h49.59a68.93,68.93,0,0,0,4.82-6H248Z" transform="translate(-194 -700)"/><path class="cls-1" d="M248,772h62s0-.69,0-1c0-1.67-.09-3-.27-5H248Z" transform="translate(-194 -700)"/><path class="cls-1" d="M248,787h59.06a48.89,48.89,0,0,0,1.81-6H248Z" transform="translate(-194 -700)"/></svg>
