<svg id="Слой_1" data-name="Слой 1" xmlns="http://www.w3.org/2000/svg" viewBox="0 0 2280.38 590.43"><defs><style>.cls-1{fill:none;stroke:#000;stroke-miterlimit:10;}</style></defs><title>stripes</title><polyline class="cls-1" points="69.81 155.71 464.55 405.71 897.45 155.71 1480.34 350.45 2211.92 0.45"/><polyline class="cls-1" points="65.94 171.5 469.74 412.44 903.21 167.74 1484.36 363.75 2215.72 29.84"/><polyline class="cls-1" points="62.06 187.29 474.93 419.16 908.97 179.77 1488.38 377.06 2219.52 59.22"/><polyline class="cls-1" points="58.19 203.08 480.12 425.89 914.73 191.79 1492.4 390.36 2223.32 88.61"/><polyline class="cls-1" points="54.32 218.87 485.31 432.62 920.49 203.82 1496.42 403.67 2227.12 118"/><polyline class="cls-1" points="50.44 234.66 490.5 439.34 926.25 215.85 1500.44 416.97 2230.93 147.38"/><polyline class="cls-1" points="46.57 250.45 495.69 446.06 932.01 227.88 1504.46 430.28 2234.73 176.77"/><polyline class="cls-1" points="42.69 266.24 500.88 452.79 937.77 239.9 1508.48 443.58 2238.53 206.15"/><polyline class="cls-1" points="38.82 282.03 506.07 459.51 943.53 251.93 1512.5 456.88 2242.33 235.54"/><polyline class="cls-1" points="34.95 297.82 511.26 466.24 949.29 263.96 1516.52 470.19 2246.13 264.93"/><polyline class="cls-1" points="31.07 313.61 516.45 472.97 955.05 275.98 1520.55 483.49 2249.93 294.31"/><polyline class="cls-1" points="27.2 329.4 521.64 479.69 960.81 288.01 1524.57 496.8 2253.73 323.7"/><polyline class="cls-1" points="23.32 345.19 526.83 486.42 966.57 300.04 1528.59 510.1 2257.53 353.08"/><polyline class="cls-1" points="19.45 360.98 532.02 493.14 972.33 312.06 1532.61 523.4 2261.33 382.47"/><polyline class="cls-1" points="15.57 376.77 537.21 499.87 978.09 324.09 1536.63 536.71 2265.14 411.86"/><polyline class="cls-1" points="11.7 392.56 542.4 506.59 983.85 336.12 1540.65 550.01 2268.94 441.24"/><polyline class="cls-1" points="7.83 408.35 547.59 513.32 989.61 348.14 1544.67 563.32 2272.74 470.63"/><polyline class="cls-1" points="3.95 424.13 552.78 520.04 995.37 360.17 1548.69 576.62 2276.54 500.01"/><polyline class="cls-1" points="0.08 439.93 557.97 526.77 1001.13 372.2 1552.71 589.92 2280.34 529.4"/></svg>
